  <svg width="18" height="18" viewBox="0 0 18 18" fill="none" xmlns="http://www.w3.org/2000/svg">
<g clip-path="url(#clip0_139_455)">
<path d="M14.1026 10.8615C13.2416 10.8615 12.4086 10.7215 11.6316 10.4695C11.3866 10.3855 11.1136 10.4485 10.9246 10.6375L9.82556 12.0165C7.84456 11.0715 5.98956 9.2865 5.00256 7.2355L6.36756 6.0735C6.55656 5.8775 6.61256 5.6045 6.53556 5.3595C6.27656 4.5825 6.14356 3.7495 6.14356 2.8885C6.14356 2.5105 5.82856 2.1955 5.45056 2.1955H3.02856C2.65056 2.1955 2.19556 2.3635 2.19556 2.8885C2.19556 9.3915 7.60656 14.7955 14.1026 14.7955C14.5996 14.7955 14.7956 14.3545 14.7956 13.9695V11.5545C14.7956 11.1765 14.4806 10.8615 14.1026 10.8615Z" fill="white"/>
</g>
<defs>
<clipPath id="clip0_139_455">
<rect width="16.8" height="16.8" fill="white" transform="translate(0.428345 0.426758)"/>
</clipPath>
</defs>
</svg>