  <svg width="18" height="19" viewBox="0 0 18 19" fill="none" xmlns="http://www.w3.org/2000/svg">
<rect x="0.598267" y="0.826691" width="17.3462" height="17.3462" rx="8.67308" fill="#E9E9E9"/>
<path d="M16.499 5.01866C15.9557 5.25435 15.3812 5.41016 14.7932 5.48123C15.4135 5.11069 15.8783 4.52776 16.1014 3.84057C15.5186 4.18754 14.8805 4.432 14.215 4.56333C13.7702 4.08094 13.1779 3.75984 12.5309 3.65038C11.8839 3.54092 11.2189 3.6493 10.6401 3.95852C10.0614 4.26774 9.60164 4.7603 9.33299 5.35896C9.06435 5.95763 9.00201 6.62852 9.15575 7.26644C7.97724 7.20683 6.82445 6.89997 5.77227 6.36578C4.72009 5.8316 3.79206 5.08205 3.04845 4.16581C2.78764 4.62127 2.65059 5.13707 2.65094 5.66192C2.65001 6.14933 2.76963 6.62941 2.99913 7.05941C3.22863 7.48942 3.5609 7.856 3.96635 8.12652C3.4951 8.1137 3.03392 7.98724 2.62203 7.75791V7.79405C2.62556 8.47697 2.86487 9.13772 3.29948 9.66452C3.73409 10.1913 4.33731 10.5518 5.00712 10.6851C4.74928 10.7635 4.48159 10.8049 4.21209 10.8079C4.02554 10.8058 3.83946 10.7888 3.65557 10.7573C3.84631 11.3448 4.21543 11.8582 4.71157 12.2261C5.20771 12.594 5.80619 12.7981 6.42373 12.81C5.38094 13.6305 4.09348 14.0783 2.76658 14.082C2.52499 14.0828 2.28359 14.0683 2.04382 14.0387C3.39858 14.9134 4.97736 15.3777 6.58996 15.3758C7.70278 15.3873 8.80675 15.177 9.83739 14.7571C10.868 14.3373 11.8047 13.7162 12.5926 12.9303C13.3805 12.1444 14.004 11.2094 14.4265 10.1798C14.849 9.15024 15.0621 8.04682 15.0534 6.93397C15.0534 6.8111 15.0534 6.681 15.0534 6.55091C15.6206 6.12796 16.1097 5.60946 16.499 5.01866Z" fill="#121212"/>
</svg>