<svg width="57" height="58" viewBox="0 0 57 58" fill="none" xmlns="http://www.w3.org/2000/svg">
<path fill-rule="evenodd" clip-rule="evenodd" d="M47.8313 15.9474C47.4317 15.9497 47.0445 16.0871 46.7328 16.3372L19.8583 37.0706L10.2517 25.189C10.1094 24.9974 9.93 24.8365 9.72408 24.716C9.51816 24.5954 9.29 24.5177 9.05331 24.4875C8.81661 24.4572 8.57625 24.4751 8.34664 24.5401C8.11704 24.6051 7.90292 24.7157 7.71712 24.8654C7.53133 25.0152 7.3777 25.2009 7.26544 25.4115C7.15319 25.622 7.08462 25.8531 7.06385 26.0908C7.04309 26.3285 7.07055 26.568 7.14459 26.7948C7.21864 27.0216 7.33774 27.2312 7.49476 27.4109L19.2736 41.9998L48.905 19.1401C49.2033 18.9165 49.4233 18.6045 49.534 18.2485C49.6446 17.8925 49.6401 17.5107 49.5212 17.1574C49.4022 16.8041 49.1749 16.4973 48.8715 16.2807C48.5681 16.0641 48.2041 15.9451 47.8313 15.9474Z" fill="white"/>
</svg>
