<svg width="18" height="19" viewBox="0 0 18 19" fill="none" xmlns="http://www.w3.org/2000/svg">
<g clip-path="url(#clip0_139_482)">
<rect x="0.139404" y="0.826691" width="17.3462" height="17.3462" rx="8.67308" fill="#E9E9E9"/>
<path d="M16.7628 7.84466C16.7986 6.81014 16.5723 5.78337 16.1051 4.85967C15.7881 4.48066 15.3482 4.22488 14.862 4.13692C12.8509 3.95444 10.8316 3.87965 8.81253 3.91286C6.80084 3.87814 4.78873 3.95052 2.78474 4.12969C2.38854 4.20176 2.02188 4.3876 1.72951 4.66453C1.07903 5.26442 1.00676 6.29073 0.934482 7.15804C0.829619 8.71743 0.829619 10.2821 0.934482 11.8415C0.955392 12.3297 1.02807 12.8142 1.15131 13.287C1.23846 13.6521 1.41477 13.9898 1.66447 14.27C1.95882 14.5616 2.33402 14.758 2.74137 14.8337C4.29958 15.0261 5.86962 15.1058 7.43929 15.0722C9.96894 15.1084 12.1878 15.0722 14.8114 14.8699C15.2288 14.7988 15.6145 14.6021 15.9172 14.3061C16.1196 14.1037 16.2707 13.8559 16.3581 13.5833C16.6166 12.7902 16.7435 11.9601 16.7339 11.126C16.7628 10.7212 16.7628 8.27831 16.7628 7.84466ZM7.1791 11.5596V7.08576L11.4578 9.33354C10.258 9.99847 8.6752 10.7501 7.1791 11.5596Z" fill="#121212"/>
</g>
<defs>
<clipPath id="clip0_139_482">
<rect x="0.139404" y="0.826691" width="17.3462" height="17.3462" rx="8.67308" fill="white"/>
</clipPath>
</defs>
</svg>
