    <svg width="16" height="15" viewBox="0 0 16 15" fill="none" xmlns="http://www.w3.org/2000/svg">
<g clip-path="url(#clip0_139_477)">
<rect width="14.8094" height="14.1923" transform="translate(0.946411 0.40387)" fill="#E9E9E9"/>
<path d="M0.946411 2.05259C0.946411 1.57473 1.11319 1.1805 1.44673 0.8699C1.78027 0.55929 2.21388 0.403992 2.74755 0.403992C3.2717 0.403992 3.69576 0.556896 4.01978 0.862732C4.35332 1.17812 4.5201 1.58906 4.5201 2.0956C4.5201 2.55434 4.3581 2.93661 4.03408 3.24245C3.70054 3.55783 3.26216 3.71552 2.71896 3.71552H2.70467C2.18052 3.71552 1.75645 3.55783 1.43243 3.24245C1.10841 2.92706 0.946411 2.53044 0.946411 2.05259ZM1.13224 14.5963V5.02007H4.30568V14.5963H1.13224ZM6.06393 14.5963H9.23737V9.24908C9.23737 8.91457 9.27549 8.65653 9.35173 8.47496C9.48514 8.15001 9.68765 7.87524 9.95925 7.65066C10.2309 7.42606 10.5715 7.31377 10.9813 7.31377C12.0487 7.31377 12.5823 8.03533 12.5823 9.47845V14.5963H15.7558V9.10573C15.7558 7.69127 15.4222 6.61849 14.7551 5.88737C14.088 5.15626 13.2065 4.7907 12.1106 4.7907C10.8813 4.7907 9.92352 5.32112 9.23737 6.38195V6.41062H9.22307L9.23737 6.38195V5.02007H6.06393C6.08299 5.32589 6.09252 6.27682 6.09252 7.87286C6.09252 9.46889 6.08299 11.71 6.06393 14.5963Z" fill="#121212"/>
</g>
<defs>
<clipPath id="clip0_139_477">
<rect width="14.8094" height="14.1923" fill="white" transform="translate(0.946411 0.40387)"/>
</clipPath>
</defs>
</svg>